# xmcd
#
# Track frame offsets:
# 150
# 10532
# 20267
# 30700
# 45567
# 66786
# 82046
# 95339
# 107952
# 117943
# 132829
# 148084
#
# Disc length: 2060 seconds
#
#
# Revision: 0
# Processed by: cddbd v1.5.2PL0 Copyright (c) Steve Scherf et al.
# Submitted via: FreeRIP 2.944 
#
DISCID=98080a0c
DTITLE=João Alexandre - É Proibido Pensar
DYEAR=2007
DGENRE=Gospel
TTITLE0=Na tua Presença
TTITLE1=Credo Apostólico
TTITLE2=Te vejo Poeta
TTITLE3=Anjos
TTITLE4=Feirante
TTITLE5=Paz e Comunhão
TTITLE6=É Proibido Pensar
TTITLE7=Pai Nosso
TTITLE8=Que Segurança
TTITLE9=Trabalho Esperança
TTITLE10=Vou Pescar
TTITLE11=O que bem Quiseres
EXTD=O Melhor
EXTT0=
EXTT1=
EXTT2=
EXTT3=
EXTT4=
EXTT5=
EXTT6=
EXTT7=
EXTT8=
EXTT9=
EXTT10=
EXTT11=
PLAYORDER=
